<svg xmlns="http://www.w3.org/2000/svg" width="360" height="300" viewBox="0 0 360 300">
  <defs>
    <radialGradient id="g" cx="35%" cy="35%" r="80%">
      <stop offset="0%" stop-color="#a8d98a" stop-opacity="0.95"/>
      <stop offset="55%" stop-color="#689139" stop-opacity="0.9"/>
      <stop offset="100%" stop-color="#2d4a25" stop-opacity="0.0"/>
    </radialGradient>
    <filter id="blur" x="-20%" y="-20%" width="140%" height="140%"><feGaussianBlur stdDeviation="2.6"/></filter>
  </defs>
  <ellipse cx="180" cy="160" rx="140" ry="105" fill="url(#g)" filter="url(#blur)" opacity="0.85"/>
  <path d="M180 48 C92 48 35 105 35 160 c0 70 64 110 145 110 c88 0 145-46 145-110 C325 102 268 48 180 48Z" fill="#689139" fill-opacity="0.62"/>
  <path d="M175 74 C105 78 68 120 64 162 c-6 54 46 86 114 90 c70 4 120-28 124-82 C307 112 247 70 175 74Z" fill="#a8d98a" fill-opacity="0.25" filter="url(#blur)"/>
  <path d="M180 48 C168 88 168 126 180 162 C194 122 194 86 180 48Z" fill="#07070a" fill-opacity="0.32"/>
  <path d="M180 58 L180 162" stroke="#d8f0c9" stroke-opacity="0.35" stroke-width="3" stroke-linecap="round"/>
  <path d="M180 104 C148 108 118 128 98 154" stroke="#d8f0c9" stroke-opacity="0.22" stroke-width="3" fill="none" stroke-linecap="round"/>
  <path d="M180 104 C212 108 242 128 262 154" stroke="#d8f0c9" stroke-opacity="0.22" stroke-width="3" fill="none" stroke-linecap="round"/>
</svg>